<svg id="Logo" xmlns="http://www.w3.org/2000/svg" xmlns:xlink="http://www.w3.org/1999/xlink" viewBox="0 0 80 80"><defs><style>.cls-1{fill:none;}.cls-2{clip-path:url(#clip-path);}.cls-3{fill:#00394e;}.cls-4{fill:#006083;}.cls-5{fill:#2f3d42;}.cls-6{fill:#e5ffff;}.cls-7{fill:#475a61;}.cls-8{fill:#5f6e74;}</style><clipPath id="clip-path" transform="translate(0 0)"><circle class="cls-1" cx="40" cy="39.97" r="36"/></clipPath></defs><title>Spire Round</title><g class="cls-2"><rect class="cls-3" width="39.99" height="80"/><rect class="cls-4" x="39.99" width="40.01" height="80"/><polygon class="cls-5" points="39.99 15.34 3.99 71.62 3.99 76.02 75.99 76.02 75.99 73.67 39.99 15.34"/><polyline class="cls-6" points="39.99 15.34 27.55 34.75 32.96 28.07 35.14 33.2 37.53 29.76 40.9 34.54 43.3 30.11 48.57 37.63 48.71 32.08 54.19 38.33"/><polyline class="cls-7" points="22.83 32.78 3.99 66.15 3.99 76.02 43.44 76.02 22.83 32.78"/><polygon class="cls-6" points="22.83 32.78 12.01 52.12 17.42 45.37 19.46 49.65 23.47 44.24 26.35 47.26 27.55 42.62 22.83 32.78"/><polyline class="cls-8" points="66.71 40.16 45.12 76.02 75.99 75.95 75.99 56.05 66.64 40.16"/><polygon class="cls-6" points="66.64 40.23 57.78 55 62.07 53.17 64.81 55.56 67.06 53.73 70.36 56.83 71.7 54.3 75.99 56.9 75.99 56.12 66.64 40.23"/></g></svg>